{"title":"The Other One: The Long, Strange Trip of Bob Weir 720p WEBRip","uid":14640063,"size":1311529928,"categoryP":"video","categoryS":"hd___movies","magnet":"?xt=urn:btih:496aa67d83c36d7cbbc8f934eb29b4fe09edbcd0&amp;dn=The+Other+One%3A+The+Long%2C+Strange+Trip+of+Bob+Weir+720p+WEBRip&amp;tr=udp%3A%2F%2Ftracker.leechers-paradise.org%3A6969&amp;tr=udp%3A%2F%2Fzer0day.ch%3A1337&amp;tr=udp%3A%2F%2Fopen.demonii.com%3A1337&amp;tr=udp%3A%2F%2Ftracker.coppersurfer.tk%3A6969&amp;tr=udp%3A%2F%2Fexodus.desync.com%3A6969","seeders":13,"leechers":0,"uploader":"TheRival","files":1,"time":1463506247,"description":"Screens: \nhttp://extraimago.com/image/a9G6\r\n\r\nVideo\r\nID : 1\r\nFormat : AVC\r\nFormat/Info : Advanced Video Codec\r\nFormat profile :   \r\nFormat settings, CABAC : Yes\r\nFormat settings, ReFrames : 1 frame\r\nFormat settings, GOP : M=3, N=24\r\nMuxing mode : Container   \r\nCodec ID : avc1\r\nCodec ID/Info : Advanced Video Coding\r\nDuration : 1h 23mn\r\nBit rate mode : Variable\r\nBit rate : 1 971 Kbps\r\nMaximum bit rate : 3 000 Kbps\r\nWidth : 1 280 pixels\r\nHeight : 720 pixels\r\nDisplay aspect ratio : 16:9\r\nFrame rate mode : Constant\r\nFrame rate : 25.000 fps\r\nColor space : YUV\r\nChroma subsampling : 4:2:0\r\nBit depth : 8 bits\r\nScan type : Progressive\r\nBits/(Pixel*Frame) : 0.086\r\nStream size : 1.14 GiB (94%)\r\nLanguage : English\r\n\r\nAudio\r\nID : 2\r\nFormat : AAC\r\nFormat/Info : Advanced Audio Codec\r\nFormat profile : LC\r\nCodec ID : 40\r\nDuration : 1h 23mn\r\nBit rate mode : Constant\r\nBit rate : 128 Kbps\r\nChannel(s) : 2 channels\r\nChannel positions : Front: L R\r\nSampling rate : 48.0 KHz\r\nFrame rate : 46.875 fps (1024 spf)\r\nCompression mode : Lossy\r\nStream size : 76.0 MiB (6%)\r\nTitle : Stereo\r\nLanguage : English\r\nDefault : Yes\r\nAlternate group : 1","torrent":{"xt":"urn:btih:496aa67d83c36d7cbbc8f934eb29b4fe09edbcd0","amp;dn":"The+Other+One%3A+The+Long%2C+Strange+Trip+of+Bob+Weir+720p+WEBRip","amp;tr":["udp%3A%2F%2Ftracker.leechers-paradise.org%3A6969","udp%3A%2F%2Fzer0day.ch%3A1337","udp%3A%2F%2Fopen.demonii.com%3A1337","udp%3A%2F%2Ftracker.coppersurfer.tk%3A6969","udp%3A%2F%2Fexodus.desync.com%3A6969"],"infoHash":"496aa67d83c36d7cbbc8f934eb29b4fe09edbcd0","infoHashBuffer":{"type":"Buffer","data":[73,106,166,125,131,195,109,124,187,200,249,52,235,41,180,254,9,237,188,208]},"announce":[],"urlList":[]}}